<svg width="410" height="60" viewBox="0 0 410 60" fill="none" xmlns="http://www.w3.org/2000/svg">
<path d="M129.83 21.505L129.395 21.109C127.85 19.708 126.83 18.784 126.83 17.65C126.83 16.726 127.556 16 128.48 16C129.002 16 129.503 16.243 129.83 16.627C130.157 16.243 130.658 16 131.18 16C132.104 16 132.83 16.726 132.83 17.65C132.83 18.784 131.81 19.708 130.265 21.112L129.83 21.505Z" fill="#E04F10"/>
<path d="M343.02 21.505L342.585 21.109C341.04 19.708 340.02 18.784 340.02 17.65C340.02 16.726 340.746 16 341.67 16C342.192 16 342.693 16.243 343.02 16.627C343.347 16.243 343.848 16 344.37 16C345.294 16 346.02 16.726 346.02 17.65C346.02 18.784 345 19.708 343.455 21.112L343.02 21.505Z" fill="#E04F10"/>
<circle cx="313.18" cy="54.17" r="2.5" fill="#C0C0C0"/>
<path d="M217.83 18.2236V29.0468H211.891V31.7658H217.83V56.666H221.264V31.7658H229.922V29.0468H221.264V16.9052L217.83 18.2236Z" fill="#FFCC33"/>
<path d="M325.163 56.666V3.80234L328.526 2.51142V56.666H325.163Z" fill="#FFCC33"/>
<path fill-rule="evenodd" clip-rule="evenodd" d="M297.289 3.75401V34.3417C296.048 32.3859 294.283 30.8118 291.994 29.6192C289.752 28.4267 287.414 27.8304 284.982 27.8304C282.263 27.8304 279.806 28.4267 277.612 29.6192C275.417 30.8118 273.676 32.529 272.388 34.771C271.1 37.013 270.456 39.5888 270.456 42.4986C270.456 45.2653 271.077 47.7935 272.317 50.0832C273.557 52.3252 275.25 54.0901 277.397 55.3781C279.591 56.6183 282 57.2384 284.624 57.2384C287.247 57.2384 289.68 56.666 291.922 55.5212C294.164 54.3286 295.929 52.7783 297.217 50.8703V56.666H300.652V2.46309L297.289 3.75401ZM285.482 54.3048C288.678 54.3048 291.374 53.303 293.568 51.2996C295.762 49.2961 296.979 46.7679 297.217 43.715V40.1374C296.692 37.4184 295.309 35.1526 293.067 33.3399C290.873 31.5273 288.345 30.6209 285.482 30.6209C283.336 30.6209 281.38 31.1218 279.615 32.1235C277.85 33.1253 276.443 34.5325 275.394 36.3451C274.344 38.1101 273.819 40.1374 273.819 42.4271C273.819 44.5737 274.344 46.5533 275.394 48.3659C276.443 50.1786 277.85 51.6335 279.615 52.7306C281.428 53.7801 283.384 54.3048 285.482 54.3048Z" fill="#FFCC33"/>
<path fill-rule="evenodd" clip-rule="evenodd" d="M111.979 34.3417V3.87278L115.342 2.58186V56.666H111.908V50.8703C110.62 52.7783 108.855 54.3286 106.613 55.5212C104.371 56.666 101.938 57.2384 99.3144 57.2384C96.6908 57.2384 94.2819 56.6183 92.0876 55.3781C89.941 54.0901 88.2476 52.3252 87.0074 50.0832C85.7671 47.7935 85.147 45.2653 85.147 42.4986C85.147 39.5888 85.791 37.013 87.0789 34.771C88.3669 32.529 90.108 30.8118 92.3022 29.6192C94.4965 28.4267 96.9532 27.8304 99.6721 27.8304C102.105 27.8304 104.442 28.4267 106.684 29.6192C108.974 30.8118 110.739 32.3859 111.979 34.3417ZM100.173 54.3048C103.369 54.3048 106.064 53.303 108.258 51.2996C110.453 49.2961 111.669 46.7679 111.908 43.715V40.1374C111.383 37.4184 110 35.1526 107.758 33.3399C105.563 31.5273 103.035 30.6209 100.173 30.6209C98.0264 30.6209 96.0707 31.1218 94.3057 32.1235C92.5408 33.1253 91.1336 34.5325 90.0841 36.3451C89.0347 38.1101 88.51 40.1374 88.51 42.4271C88.51 44.5737 89.0347 46.5533 90.0841 48.3659C91.1336 50.1786 92.5408 51.6335 94.3057 52.7306C96.1184 53.7801 98.0741 54.3048 100.173 54.3048Z" fill="#FFCC33"/>
<path fill-rule="evenodd" clip-rule="evenodd" d="M31.8321 3.92921V34.3417C30.5919 32.3859 28.8269 30.8118 26.5373 29.6192C24.2953 28.4267 21.9579 27.8304 19.5251 27.8304C16.8061 27.8304 14.3495 28.4267 12.1552 29.6192C9.96096 30.8118 8.21986 32.529 6.93191 34.771C5.64397 37.013 5 39.5888 5 42.4986C5 45.2653 5.62012 47.7935 6.86036 50.0832C8.1006 52.3252 9.79401 54.0901 11.9406 55.3781C14.1348 56.6183 16.5438 57.2384 19.1674 57.2384C21.791 57.2384 24.2237 56.666 26.4657 55.5212C28.7077 54.3286 30.4726 52.7783 31.7606 50.8703V56.666H35.1951V2.6383L31.8321 3.92921ZM20.026 54.3048C23.222 54.3048 25.9171 53.303 28.1114 51.2996C30.3057 49.2961 31.5221 46.7679 31.7606 43.715V40.1374C31.2359 37.4184 29.8525 35.1526 27.6105 33.3399C25.4163 31.5273 22.8881 30.6209 20.026 30.6209C17.8794 30.6209 15.9237 31.1218 14.1587 32.1235C12.3937 33.1253 10.9865 34.5325 9.93711 36.3451C8.88768 38.1101 8.36296 40.1374 8.36296 42.4271C8.36296 44.5737 8.88768 46.5533 9.93711 48.3659C10.9865 50.1786 12.3937 51.6335 14.1587 52.7306C15.9714 53.7801 17.9271 54.3048 20.026 54.3048Z" fill="#FFCC33"/>
<path d="M354.3 31.8373H359.166V56.666H362.529V31.8373H371.902V28.7606H362.529V14.5932C362.529 11.0633 363.03 8.55897 364.031 7.08022C365.033 5.55377 366.583 4.79054 368.682 4.79054C369.732 4.79054 370.566 5.02905 371.186 5.50607L372.618 3.07329C371.33 2.35776 369.922 2 368.396 2C365.295 2 362.982 3.02558 361.455 5.07675C359.929 7.08022 359.166 10.2762 359.166 14.6648V28.7606H354.3V31.8373Z" fill="#FFCC33"/>
<path fill-rule="evenodd" clip-rule="evenodd" d="M75.1588 28.689V56.666H71.7958V50.7272C70.6987 52.5398 69.0291 54.0901 66.7871 55.3781C64.5452 56.6183 62.1124 57.2384 59.4888 57.2384C56.8175 57.2384 54.3847 56.6421 52.1905 55.4496C50.0439 54.2094 48.3266 52.4921 47.0387 50.2978C45.7984 48.0559 45.1783 45.5038 45.1783 42.6417C45.1783 39.5888 45.8223 36.9652 47.1102 34.771C48.4459 32.529 50.2585 30.8118 52.5482 29.6192C54.8856 28.4267 57.5092 27.8304 60.419 27.8304C62.7086 27.8304 64.9029 28.4744 67.0018 29.7623C69.1007 31.0503 70.6987 32.7198 71.7958 34.771L72.1536 28.689H75.1588ZM60.2043 54.3763C63.3526 54.3763 66.0239 53.3984 68.2182 51.4427C70.4125 49.4869 71.605 46.9826 71.7958 43.9297V39.9227C71.2234 37.2992 69.84 35.1049 67.6458 33.3399C65.4515 31.575 62.9472 30.6925 60.1328 30.6925C57.9862 30.6925 56.0304 31.1934 54.2655 32.1951C52.5005 33.1491 51.0933 34.5325 50.0439 36.3451C49.0421 38.1101 48.5413 40.1613 48.5413 42.4986C48.5413 44.6452 49.066 46.6248 50.1154 48.4375C51.1649 50.2501 52.5721 51.705 54.337 52.8022C56.1497 53.8516 58.1054 54.3763 60.2043 54.3763Z" fill="#FFCC33"/>
<path d="M131.407 56.666V28.689H128.044V56.666H131.407Z" fill="#FFCC33"/>
<path d="M165.724 53.947C164.437 54.9964 162.958 55.8074 161.288 56.3798C159.666 56.9522 157.997 57.2384 156.28 57.2384C153.465 57.2384 150.913 56.6183 148.623 55.3781C146.381 54.0901 144.617 52.349 143.329 50.1547C142.041 47.9128 141.397 45.4084 141.397 42.6417C141.397 39.875 142.041 37.3946 143.329 35.2003C144.664 32.9583 146.453 31.2172 148.695 29.977C150.937 28.689 153.37 28.0451 155.993 28.0451C159.857 28.0451 163.125 29.1422 165.796 31.3365L164.007 33.6261C161.622 31.7658 159.022 30.8356 156.208 30.8356C154.109 30.8356 152.177 31.3603 150.412 32.4098C148.695 33.4592 147.312 34.8902 146.262 36.7029C145.26 38.5156 144.76 40.4952 144.76 42.6417C144.76 44.7883 145.26 46.7679 146.262 48.5806C147.312 50.3455 148.719 51.7527 150.484 52.8022C152.296 53.8516 154.3 54.3763 156.494 54.3763C159.165 54.3763 161.622 53.5415 163.864 51.872L165.724 53.947Z" fill="#FFCC33"/>
<path fill-rule="evenodd" clip-rule="evenodd" d="M202.332 56.666V28.689H199.327L198.969 34.771C197.872 32.7198 196.274 31.0503 194.175 29.7623C192.076 28.4744 189.882 27.8304 187.592 27.8304C184.682 27.8304 182.059 28.4267 179.721 29.6192C177.432 30.8118 175.619 32.529 174.283 34.771C172.995 36.9652 172.351 39.5888 172.351 42.6417C172.351 45.5038 172.972 48.0559 174.212 50.2978C175.5 52.4921 177.217 54.2094 179.364 55.4496C181.558 56.6421 183.991 57.2384 186.662 57.2384C189.285 57.2384 191.718 56.6183 193.96 55.3781C196.202 54.0901 197.872 52.5398 198.969 50.7272V56.666H202.332ZM195.391 51.4427C193.197 53.3984 190.526 54.3763 187.377 54.3763C185.279 54.3763 183.323 53.8516 181.51 52.8022C179.745 51.705 178.338 50.2501 177.289 48.4375C176.239 46.6248 175.714 44.6452 175.714 42.4986C175.714 40.1613 176.215 38.1101 177.217 36.3451C178.266 34.5325 179.674 33.1491 181.439 32.1951C183.204 31.1934 185.159 30.6925 187.306 30.6925C190.12 30.6925 192.625 31.575 194.819 33.3399C197.013 35.1049 198.396 37.2992 198.969 39.9227V43.9297C198.778 46.9826 197.586 49.4869 195.391 51.4427Z" fill="#FFCC33"/>
<path fill-rule="evenodd" clip-rule="evenodd" d="M258.7 51.228C256.267 53.2792 253.548 54.3048 250.543 54.3048C248.158 54.3048 246.011 53.6847 244.103 52.4444C242.243 51.2042 240.86 49.5823 239.953 47.5788L263.852 38.3486C262.802 35.1049 261.133 32.529 258.843 30.6209C256.553 28.7129 253.787 27.7589 250.543 27.7589C247.824 27.7589 245.32 28.4267 243.03 29.7623C240.74 31.098 238.928 32.9106 237.592 35.2003C236.256 37.4423 235.589 39.8989 235.589 42.5702C235.589 45.3369 236.209 47.8412 237.449 50.0832C238.737 52.2775 240.502 54.0186 242.744 55.3065C245.034 56.5944 247.609 57.2384 250.472 57.2384C252.236 57.2384 253.978 56.9284 255.695 56.3082C257.46 55.6404 259.034 54.7579 260.417 53.6608L258.7 51.228ZM244.533 32.1951C246.298 31.1457 248.23 30.6209 250.328 30.6209C252.475 30.6209 254.359 31.2172 255.981 32.4098C257.603 33.5546 258.867 35.081 259.773 36.9891L239.166 45.0745C238.975 44.3113 238.88 43.4288 238.88 42.4271C238.88 40.2328 239.381 38.2532 240.383 36.4882C241.384 34.6756 242.768 33.2445 244.533 32.1951Z" fill="#FFCC33"/>
<path d="M344.597 28.689V56.666H341.234V28.689H344.597Z" fill="#FFCC33"/>
<path fill-rule="evenodd" clip-rule="evenodd" d="M391.691 54.3048C394.696 54.3048 397.415 53.2792 399.848 51.228L401.565 53.6608C400.182 54.7579 398.608 55.6404 396.843 56.3082C395.126 56.9284 393.385 57.2384 391.62 57.2384C388.758 57.2384 386.182 56.5944 383.892 55.3065C381.65 54.0186 379.885 52.2775 378.597 50.0832C377.357 47.8412 376.737 45.3369 376.737 42.5702C376.737 39.8989 377.405 37.4423 378.74 35.2003C380.076 32.9106 381.889 31.098 384.178 29.7623C386.468 28.4267 388.972 27.7589 391.691 27.7589C394.935 27.7589 397.702 28.7129 399.991 30.6209C402.281 32.529 403.951 35.1049 405 38.3486L381.102 47.5788C382.008 49.5823 383.391 51.2042 385.252 52.4444C387.16 53.6847 389.306 54.3048 391.691 54.3048ZM391.477 30.6209C389.378 30.6209 387.446 31.1457 385.681 32.1951C383.916 33.2445 382.533 34.6756 381.531 36.4882C380.529 38.2532 380.028 40.2328 380.028 42.4271C380.028 43.4288 380.124 44.3113 380.314 45.0745L400.922 36.9891C400.015 35.081 398.751 33.5546 397.129 32.4098C395.507 31.2172 393.623 30.6209 391.477 30.6209Z" fill="#FFCC33"/>
<path d="M28.1114 51.2996C25.9171 53.303 23.222 54.3048 20.026 54.3048C17.9271 54.3048 15.9714 53.7801 14.1587 52.7306C12.3937 51.6335 10.9865 50.1786 9.93711 48.3659C8.88768 46.5533 8.36296 44.5737 8.36296 42.4271C8.36296 40.1374 8.88768 38.1101 9.93711 36.3451C10.9865 34.5325 12.3937 33.1253 14.1587 32.1235C15.9237 31.1218 17.8794 30.6209 20.026 30.6209C22.8881 30.6209 25.4163 31.5273 27.6105 33.3399C29.8525 35.1526 31.2359 37.4184 31.7606 40.1374V43.715C31.5221 46.7679 30.3057 49.2961 28.1114 51.2996Z" fill="#FFCC33"/>
<path d="M68.2182 51.4427C66.0239 53.3984 63.3526 54.3763 60.2043 54.3763C58.1054 54.3763 56.1497 53.8516 54.337 52.8022C52.5721 51.705 51.1649 50.2501 50.1154 48.4375C49.066 46.6248 48.5413 44.6452 48.5413 42.4986C48.5413 40.1613 49.0421 38.1101 50.0439 36.3451C51.0933 34.5325 52.5005 33.1491 54.2655 32.1951C56.0304 31.1934 57.9862 30.6925 60.1328 30.6925C62.9472 30.6925 65.4515 31.575 67.6458 33.3399C69.84 35.1049 71.2234 37.2992 71.7958 39.9227V43.9297C71.605 46.9826 70.4125 49.4869 68.2182 51.4427Z" fill="#FFCC33"/>
<path d="M108.258 51.2996C106.064 53.303 103.369 54.3048 100.173 54.3048C98.0741 54.3048 96.1184 53.7801 94.3057 52.7306C92.5408 51.6335 91.1336 50.1786 90.0841 48.3659C89.0347 46.5533 88.51 44.5737 88.51 42.4271C88.51 40.1374 89.0347 38.1101 90.0841 36.3451C91.1336 34.5325 92.5408 33.1253 94.3057 32.1235C96.0707 31.1218 98.0264 30.6209 100.173 30.6209C103.035 30.6209 105.563 31.5273 107.758 33.3399C110 35.1526 111.383 37.4184 111.908 40.1374V43.715C111.669 46.7679 110.453 49.2961 108.258 51.2996Z" fill="#FFCC33"/>
<path d="M187.377 54.3763C190.526 54.3763 193.197 53.3984 195.391 51.4427C197.586 49.4869 198.778 46.9826 198.969 43.9297V39.9227C198.396 37.2992 197.013 35.1049 194.819 33.3399C192.625 31.575 190.12 30.6925 187.306 30.6925C185.159 30.6925 183.204 31.1934 181.439 32.1951C179.674 33.1491 178.266 34.5325 177.217 36.3451C176.215 38.1101 175.714 40.1613 175.714 42.4986C175.714 44.6452 176.239 46.6248 177.289 48.4375C178.338 50.2501 179.745 51.705 181.51 52.8022C183.323 53.8516 185.279 54.3763 187.377 54.3763Z" fill="#FFCC33"/>
<path d="M250.328 30.6209C248.23 30.6209 246.298 31.1457 244.533 32.1951C242.768 33.2445 241.384 34.6756 240.383 36.4882C239.381 38.2532 238.88 40.2328 238.88 42.4271C238.88 43.4288 238.975 44.3113 239.166 45.0745L259.773 36.9891C258.867 35.081 257.603 33.5546 255.981 32.4098C254.359 31.2172 252.475 30.6209 250.328 30.6209Z" fill="#FFCC33"/>
<path d="M293.568 51.2996C291.374 53.303 288.678 54.3048 285.482 54.3048C283.384 54.3048 281.428 53.7801 279.615 52.7306C277.85 51.6335 276.443 50.1786 275.394 48.3659C274.344 46.5533 273.819 44.5737 273.819 42.4271C273.819 40.1374 274.344 38.1101 275.394 36.3451C276.443 34.5325 277.85 33.1253 279.615 32.1235C281.38 31.1218 283.336 30.6209 285.482 30.6209C288.345 30.6209 290.873 31.5273 293.067 33.3399C295.309 35.1526 296.692 37.4184 297.217 40.1374V43.715C296.979 46.7679 295.762 49.2961 293.568 51.2996Z" fill="#FFCC33"/>
<path d="M385.681 32.1951C387.446 31.1457 389.378 30.6209 391.477 30.6209C393.623 30.6209 395.507 31.2172 397.129 32.4098C398.751 33.5546 400.015 35.081 400.922 36.9891L380.314 45.0745C380.124 44.3113 380.028 43.4288 380.028 42.4271C380.028 40.2328 380.529 38.2532 381.531 36.4882C382.533 34.6756 383.916 33.2445 385.681 32.1951Z" fill="#FFCC33"/>
<path d="M217.83 18.2236V29.0468H211.891V31.7658H217.83V56.666H221.264V31.7658H229.922V29.0468H221.264V16.9052L217.83 18.2236Z" fill="#E04F10"/>
<path d="M325.163 56.666V3.80234L328.526 2.51142V56.666H325.163Z" fill="#E04F10"/>
<path fill-rule="evenodd" clip-rule="evenodd" d="M297.289 3.75401V34.3417C296.048 32.3859 294.283 30.8118 291.994 29.6192C289.752 28.4267 287.414 27.8304 284.982 27.8304C282.263 27.8304 279.806 28.4267 277.612 29.6192C275.417 30.8118 273.676 32.529 272.388 34.771C271.1 37.013 270.456 39.5888 270.456 42.4986C270.456 45.2653 271.077 47.7935 272.317 50.0832C273.557 52.3252 275.25 54.0901 277.397 55.3781C279.591 56.6183 282 57.2384 284.624 57.2384C287.247 57.2384 289.68 56.666 291.922 55.5212C294.164 54.3286 295.929 52.7783 297.217 50.8703V56.666H300.652V2.46309L297.289 3.75401ZM285.482 54.3048C288.678 54.3048 291.374 53.303 293.568 51.2996C295.762 49.2961 296.979 46.7679 297.217 43.715V40.1374C296.692 37.4184 295.309 35.1526 293.067 33.3399C290.873 31.5273 288.345 30.6209 285.482 30.6209C283.336 30.6209 281.38 31.1218 279.615 32.1235C277.85 33.1253 276.443 34.5325 275.394 36.3451C274.344 38.1101 273.819 40.1374 273.819 42.4271C273.819 44.5737 274.344 46.5533 275.394 48.3659C276.443 50.1786 277.85 51.6335 279.615 52.7306C281.428 53.7801 283.384 54.3048 285.482 54.3048Z" fill="#E04F10"/>
<path fill-rule="evenodd" clip-rule="evenodd" d="M111.979 34.3417V3.87278L115.342 2.58186V56.666H111.908V50.8703C110.62 52.7783 108.855 54.3286 106.613 55.5212C104.371 56.666 101.938 57.2384 99.3144 57.2384C96.6908 57.2384 94.2819 56.6183 92.0876 55.3781C89.941 54.0901 88.2476 52.3252 87.0074 50.0832C85.7671 47.7935 85.147 45.2653 85.147 42.4986C85.147 39.5888 85.791 37.013 87.0789 34.771C88.3669 32.529 90.108 30.8118 92.3022 29.6192C94.4965 28.4267 96.9532 27.8304 99.6721 27.8304C102.105 27.8304 104.442 28.4267 106.684 29.6192C108.974 30.8118 110.739 32.3859 111.979 34.3417ZM100.173 54.3048C103.369 54.3048 106.064 53.303 108.258 51.2996C110.453 49.2961 111.669 46.7679 111.908 43.715V40.1374C111.383 37.4184 110 35.1526 107.758 33.3399C105.563 31.5273 103.035 30.6209 100.173 30.6209C98.0264 30.6209 96.0707 31.1218 94.3057 32.1235C92.5408 33.1253 91.1336 34.5325 90.0841 36.3451C89.0347 38.1101 88.51 40.1374 88.51 42.4271C88.51 44.5737 89.0347 46.5533 90.0841 48.3659C91.1336 50.1786 92.5408 51.6335 94.3057 52.7306C96.1184 53.7801 98.0741 54.3048 100.173 54.3048Z" fill="#E04F10"/>
<path fill-rule="evenodd" clip-rule="evenodd" d="M31.8321 3.92921V34.3417C30.5919 32.3859 28.8269 30.8118 26.5373 29.6192C24.2953 28.4267 21.9579 27.8304 19.5251 27.8304C16.8061 27.8304 14.3495 28.4267 12.1552 29.6192C9.96096 30.8118 8.21986 32.529 6.93191 34.771C5.64397 37.013 5 39.5888 5 42.4986C5 45.2653 5.62012 47.7935 6.86036 50.0832C8.1006 52.3252 9.79401 54.0901 11.9406 55.3781C14.1348 56.6183 16.5438 57.2384 19.1674 57.2384C21.791 57.2384 24.2237 56.666 26.4657 55.5212C28.7077 54.3286 30.4726 52.7783 31.7606 50.8703V56.666H35.1951V2.6383L31.8321 3.92921ZM20.026 54.3048C23.222 54.3048 25.9171 53.303 28.1114 51.2996C30.3057 49.2961 31.5221 46.7679 31.7606 43.715V40.1374C31.2359 37.4184 29.8525 35.1526 27.6105 33.3399C25.4163 31.5273 22.8881 30.6209 20.026 30.6209C17.8794 30.6209 15.9237 31.1218 14.1587 32.1235C12.3937 33.1253 10.9865 34.5325 9.93711 36.3451C8.88768 38.1101 8.36296 40.1374 8.36296 42.4271C8.36296 44.5737 8.88768 46.5533 9.93711 48.3659C10.9865 50.1786 12.3937 51.6335 14.1587 52.7306C15.9714 53.7801 17.9271 54.3048 20.026 54.3048Z" fill="#E04F10"/>
<path d="M354.3 31.8373H359.166V56.666H362.529V31.8373H371.902V28.7606H362.529V14.5932C362.529 11.0633 363.03 8.55897 364.031 7.08022C365.033 5.55377 366.583 4.79054 368.682 4.79054C369.732 4.79054 370.566 5.02905 371.186 5.50607L372.618 3.07329C371.33 2.35776 369.922 2 368.396 2C365.295 2 362.982 3.02558 361.455 5.07675C359.929 7.08022 359.166 10.2762 359.166 14.6648V28.7606H354.3V31.8373Z" fill="#E04F10"/>
<path fill-rule="evenodd" clip-rule="evenodd" d="M75.1588 28.689V56.666H71.7958V50.7272C70.6987 52.5398 69.0291 54.0901 66.7871 55.3781C64.5452 56.6183 62.1124 57.2384 59.4888 57.2384C56.8175 57.2384 54.3847 56.6421 52.1905 55.4496C50.0439 54.2094 48.3266 52.4921 47.0387 50.2978C45.7984 48.0559 45.1783 45.5038 45.1783 42.6417C45.1783 39.5888 45.8223 36.9652 47.1102 34.771C48.4459 32.529 50.2585 30.8118 52.5482 29.6192C54.8856 28.4267 57.5092 27.8304 60.419 27.8304C62.7086 27.8304 64.9029 28.4744 67.0018 29.7623C69.1007 31.0503 70.6987 32.7198 71.7958 34.771L72.1536 28.689H75.1588ZM60.2043 54.3763C63.3526 54.3763 66.0239 53.3984 68.2182 51.4427C70.4125 49.4869 71.605 46.9826 71.7958 43.9297V39.9227C71.2234 37.2992 69.84 35.1049 67.6458 33.3399C65.4515 31.575 62.9472 30.6925 60.1328 30.6925C57.9862 30.6925 56.0304 31.1934 54.2655 32.1951C52.5005 33.1491 51.0933 34.5325 50.0439 36.3451C49.0421 38.1101 48.5413 40.1613 48.5413 42.4986C48.5413 44.6452 49.066 46.6248 50.1154 48.4375C51.1649 50.2501 52.5721 51.705 54.337 52.8022C56.1497 53.8516 58.1054 54.3763 60.2043 54.3763Z" fill="#E04F10"/>
<path d="M131.407 56.666V28.689H128.044V56.666H131.407Z" fill="#E04F10"/>
<path d="M165.724 53.947C164.437 54.9964 162.958 55.8074 161.288 56.3798C159.666 56.9522 157.997 57.2384 156.28 57.2384C153.465 57.2384 150.913 56.6183 148.623 55.3781C146.381 54.0901 144.617 52.349 143.329 50.1547C142.041 47.9128 141.397 45.4084 141.397 42.6417C141.397 39.875 142.041 37.3946 143.329 35.2003C144.664 32.9583 146.453 31.2172 148.695 29.977C150.937 28.689 153.37 28.0451 155.993 28.0451C159.857 28.0451 163.125 29.1422 165.796 31.3365L164.007 33.6261C161.622 31.7658 159.022 30.8356 156.208 30.8356C154.109 30.8356 152.177 31.3603 150.412 32.4098C148.695 33.4592 147.312 34.8902 146.262 36.7029C145.26 38.5156 144.76 40.4952 144.76 42.6417C144.76 44.7883 145.26 46.7679 146.262 48.5806C147.312 50.3455 148.719 51.7527 150.484 52.8022C152.296 53.8516 154.3 54.3763 156.494 54.3763C159.165 54.3763 161.622 53.5415 163.864 51.872L165.724 53.947Z" fill="#E04F10"/>
<path fill-rule="evenodd" clip-rule="evenodd" d="M202.332 56.666V28.689H199.327L198.969 34.771C197.872 32.7198 196.274 31.0503 194.175 29.7623C192.076 28.4744 189.882 27.8304 187.592 27.8304C184.682 27.8304 182.059 28.4267 179.721 29.6192C177.432 30.8118 175.619 32.529 174.283 34.771C172.995 36.9652 172.351 39.5888 172.351 42.6417C172.351 45.5038 172.972 48.0559 174.212 50.2978C175.5 52.4921 177.217 54.2094 179.364 55.4496C181.558 56.6421 183.991 57.2384 186.662 57.2384C189.285 57.2384 191.718 56.6183 193.96 55.3781C196.202 54.0901 197.872 52.5398 198.969 50.7272V56.666H202.332ZM195.391 51.4427C193.197 53.3984 190.526 54.3763 187.377 54.3763C185.279 54.3763 183.323 53.8516 181.51 52.8022C179.745 51.705 178.338 50.2501 177.289 48.4375C176.239 46.6248 175.714 44.6452 175.714 42.4986C175.714 40.1613 176.215 38.1101 177.217 36.3451C178.266 34.5325 179.674 33.1491 181.439 32.1951C183.204 31.1934 185.159 30.6925 187.306 30.6925C190.12 30.6925 192.625 31.575 194.819 33.3399C197.013 35.1049 198.396 37.2992 198.969 39.9227V43.9297C198.778 46.9826 197.586 49.4869 195.391 51.4427Z" fill="#E04F10"/>
<path fill-rule="evenodd" clip-rule="evenodd" d="M258.7 51.228C256.267 53.2792 253.548 54.3048 250.543 54.3048C248.158 54.3048 246.011 53.6847 244.103 52.4444C242.243 51.2042 240.86 49.5823 239.953 47.5788L263.852 38.3486C262.802 35.1049 261.133 32.529 258.843 30.6209C256.553 28.7129 253.787 27.7589 250.543 27.7589C247.824 27.7589 245.32 28.4267 243.03 29.7623C240.74 31.098 238.928 32.9106 237.592 35.2003C236.256 37.4423 235.589 39.8989 235.589 42.5702C235.589 45.3369 236.209 47.8412 237.449 50.0832C238.737 52.2775 240.502 54.0186 242.744 55.3065C245.034 56.5944 247.609 57.2384 250.472 57.2384C252.236 57.2384 253.978 56.9284 255.695 56.3082C257.46 55.6404 259.034 54.7579 260.417 53.6608L258.7 51.228ZM244.533 32.1951C246.298 31.1457 248.23 30.6209 250.328 30.6209C252.475 30.6209 254.359 31.2172 255.981 32.4098C257.603 33.5546 258.867 35.081 259.773 36.9891L239.166 45.0745C238.975 44.3113 238.88 43.4288 238.88 42.4271C238.88 40.2328 239.381 38.2532 240.383 36.4882C241.384 34.6756 242.768 33.2445 244.533 32.1951Z" fill="#E04F10"/>
<path d="M344.597 28.689V56.666H341.234V28.689H344.597Z" fill="#E04F10"/>
<path fill-rule="evenodd" clip-rule="evenodd" d="M391.691 54.3048C394.696 54.3048 397.415 53.2792 399.848 51.228L401.565 53.6608C400.182 54.7579 398.608 55.6404 396.843 56.3082C395.126 56.9284 393.385 57.2384 391.62 57.2384C388.758 57.2384 386.182 56.5944 383.892 55.3065C381.65 54.0186 379.885 52.2775 378.597 50.0832C377.357 47.8412 376.737 45.3369 376.737 42.5702C376.737 39.8989 377.405 37.4423 378.74 35.2003C380.076 32.9106 381.889 31.098 384.178 29.7623C386.468 28.4267 388.972 27.7589 391.691 27.7589C394.935 27.7589 397.702 28.7129 399.991 30.6209C402.281 32.529 403.951 35.1049 405 38.3486L381.102 47.5788C382.008 49.5823 383.391 51.2042 385.252 52.4444C387.16 53.6847 389.306 54.3048 391.691 54.3048ZM391.477 30.6209C389.378 30.6209 387.446 31.1457 385.681 32.1951C383.916 33.2445 382.533 34.6756 381.531 36.4882C380.529 38.2532 380.028 40.2328 380.028 42.4271C380.028 43.4288 380.124 44.3113 380.314 45.0745L400.922 36.9891C400.015 35.081 398.751 33.5546 397.129 32.4098C395.507 31.2172 393.623 30.6209 391.477 30.6209Z" fill="#E04F10"/>
</svg>
