<svg width="2613" height="874" viewBox="0 0 2613 874" fill="none" xmlns="http://www.w3.org/2000/svg">
<path d="M418 529C376 551.667 328.667 563 276 563V483C308.667 483 339 475.667 367 461C394.333 446.333 416.667 424 434 394C450.667 363.333 459 326 459 282C459 237.333 450.667 200 434 170C416.667 139.333 394.333 116.667 367 102C339 87.3334 308.667 80.0001 276 80.0001V0C328.667 0 376 11.3334 418 34.0001C459.333 56.6667 492 89.3334 516 132C540 174.667 552 224.667 552 282C552 339.333 540 389.333 516 432C492 474 459.333 506.333 418 529Z" fill="black"/>
<path d="M134 529C176 551.667 223.333 563 276 563V483C243.333 483 213 475.667 185 461C157.667 446.333 135.333 424 118 394C101.333 363.333 93 326 93 282C93 237.333 101.333 200 118 170C135.333 139.333 157.667 116.667 185 102C213 87.3334 243.333 80.0001 276 80.0001V0C223.333 0 176 11.3334 134 34.0001C92.6667 56.6667 60 89.3334 36 132C12 174.667 0 224.667 0 282C0 339.333 12 389.333 36 432C60 474 92.6667 506.333 134 529Z" fill="black"/>
<path d="M93 281.5V873.5H0V281.5H93Z" fill="black"/>
<path d="M1020 529C978 551.667 930.667 563 878 563V483C910.667 483 941 475.667 969 461C996.333 446.333 1018.67 424 1036 394C1052.67 363.333 1061 326 1061 282C1061 237.333 1052.67 200 1036 170C1018.67 139.333 996.333 116.667 969 102C941 87.3334 910.667 80.0001 878 80.0001V0C930.667 0 978 11.3334 1020 34.0001C1061.33 56.6667 1094 89.3334 1118 132C1142 174.667 1154 224.667 1154 282C1154 339.333 1142 389.333 1118 432C1094 474 1061.33 506.333 1020 529Z" fill="black"/>
<path d="M736 529C778 551.667 825.333 563 878 563V483C845.333 483 815 475.667 787 461C759.667 446.333 737.333 424 720 394C703.333 363.333 695 326 695 282C695 237.333 703.333 200 720 170C737.333 139.333 759.667 116.667 787 102C815 87.3334 845.333 80.0001 878 80.0001V0C825.333 0 778 11.3334 736 34.0001C694.667 56.6667 662 89.3334 638 132C614 174.667 602 224.667 602 282C602 339.333 614 389.333 638 432C662 474 694.667 506.333 736 529Z" fill="black"/>
<path d="M1333 529C1375 551.667 1422.33 563 1475 563C1527.67 563 1575 551.667 1617 529C1658.33 506.333 1691 474 1715 432C1727.88 409.111 1737.3 384.111 1743.27 357H1648.14C1644.25 370.256 1639.2 382.59 1633 394C1615.67 424 1593.33 446.333 1566 461C1538 475.667 1507.67 483 1475 483C1442.33 483 1412 475.667 1384 461C1356.67 446.333 1334.33 424 1317 394C1300.33 363.333 1292 326 1292 282C1292 237.333 1300.33 200 1317 170C1334.33 139.333 1356.67 116.667 1384 102C1412 87.3334 1442.33 80 1475 80C1507.67 80 1538 87.3334 1566 102C1593.33 116.667 1615.67 139.333 1633 170C1639.27 181.294 1644.37 193.627 1648.28 207H1743.27C1737.3 179.89 1727.88 154.89 1715 132C1691 89.3334 1658.33 56.6667 1617 34C1575 11.3334 1527.67 0 1475 0C1422.33 0 1375 11.3334 1333 34C1291.67 56.6667 1259 89.3334 1235 132C1211 174.667 1199 224.667 1199 282C1199 339.333 1211 389.333 1235 432C1259 474 1291.67 506.333 1333 529Z" fill="black"/>
<path d="M2181 0V563H2088V0H2181Z" fill="black"/>
<rect x="1788" y="470" width="93" height="93" fill="black"/>
<path d="M1984.5 780.5C2041.66 780.5 2088 734.161 2088 677H2181C2181 785.524 2093.02 873.5 1984.5 873.5C1875.98 873.5 1788 785.524 1788 677H1881C1881 734.161 1927.34 780.5 1984.5 780.5Z" fill="black"/>
<path d="M2337.31 334.865C2365.73 352.282 2398.42 361.5 2431.75 361.5V281.5C2376.11 281.5 2331 236.393 2331 180.75C2331 125.107 2376.11 80.0001 2431.75 80.0001C2476.52 80.0001 2514.48 109.207 2527.59 149.608L2603.65 124.895C2593.35 93.1924 2574.49 64.9556 2549.14 43.3067C2523.79 21.6578 2492.95 7.44 2460.03 2.2254C2427.1 -2.98919 2393.38 1.00226 2362.58 13.7589C2331.78 26.5154 2305.11 47.5399 2285.52 74.5079C2265.93 101.476 2254.17 133.337 2251.56 166.569C2248.94 199.8 2255.57 233.108 2270.7 262.809C2285.83 292.51 2308.89 317.448 2337.31 334.865Z" fill="black"/>
<path d="M2526.19 228.135C2497.77 210.718 2465.08 201.5 2431.75 201.5V281.5C2487.39 281.5 2532.5 326.607 2532.5 382.25C2532.5 437.893 2487.39 483 2431.75 483C2386.98 483 2349.02 453.793 2335.91 413.392L2259.85 438.105C2270.15 469.808 2289.01 498.044 2314.36 519.693C2339.71 541.342 2370.55 555.56 2403.47 560.775C2436.4 565.989 2470.12 561.998 2500.92 549.241C2531.72 536.485 2558.39 515.46 2577.98 488.492C2597.57 461.524 2609.33 429.663 2611.94 396.431C2614.56 363.2 2607.93 329.892 2592.8 300.191C2577.67 270.49 2554.61 245.552 2526.19 228.135Z" fill="black"/>
</svg>
